<svg xmlns="http://www.w3.org/2000/svg" width="180" height="90" viewBox="0 0 180 90">
  <!-- Background -->
  <rect width="180" height="90" fill="transparent"/>
  
  <!-- GLX Logo Text matching original design -->
  <g>
    <!-- G -->
    <path d="M20 65 Q15 65 15 55 Q15 30 35 30 Q50 30 50 45 L40 45 Q40 40 35 40 Q25 40 25 55 Q25 60 30 60 L45 60 L45 50 L35 50 L35 45 L50 45 L50 65 Z" fill="#2d2d2d"/>
    
    <!-- L -->
    <rect x="65" y="30" width="10" height="35" fill="#2d2d2d"/>
    <rect x="65" y="60" width="25" height="5" fill="#2d2d2d"/>
    
    <!-- x (smaller, positioned as superscript) -->
    <g transform="translate(100, 25)">
      <path d="M5 15 L15 25 M15 15 L5 25" stroke="#2d2d2d" stroke-width="3" stroke-linecap="round"/>
    </g>
  </g>
</svg>
