<svg width="100%" height="100%" viewBox="0 0 500 500" xmlns="http://www.w3.org/2000/svg">
  <g>
    <path
       style="fill:#000000"
       d="M 0,250 V 0 H 250 500 V 250 500 H 250 0 Z m 36.283954,122.75 -0.369661,-3.25 1.574791,2.75 c 2.027396,3.54037 2.776699,3.46297 4.840877,-0.5 l 1.692815,-3.25 -0.310587,3.75 c -0.284404,3.43386 -0.09568,3.75 2.238612,3.75 2.449021,0 2.549199,-0.23579 2.549199,-6 0,-5.56193 -0.164867,-6 -2.258097,-6 -1.706681,0 -2.654882,0.99166 -3.882967,4.06095 l -1.62487,4.06095 -1.818141,-4.06095 C 37.765682,365.4918 36.436957,364 35.298892,364 33.766913,364 33.5,364.89026 33.5,370 c 0,4.79656 0.316265,6 1.576807,6 1.188123,0 1.485686,-0.80113 1.207147,-3.25 z m 21.466046,2 c -0.146667,-0.73333 0.783333,-1.25 2.25,-1.25 1.466667,0 2.396667,0.51667 2.25,1.25 -0.159439,0.79719 0.927297,1.24445 3,1.23469 1.7875,-0.008 2.777977,-0.34592 2.201059,-0.75 -0.576917,-0.40408 -2.001901,-2.97218 -3.166631,-5.7069 -1.16473,-2.73472 -2.587234,-5.12873 -3.161121,-5.32002 -0.573886,-0.1913 -2.344437,2.3837 -3.934557,5.72221 C 54.553471,375.46284 54.461442,376 56.148811,376 57.166965,376 57.8875,375.4375 57.75,374.75 Z M 59,370.5 c 0,-0.825 0.401855,-1.5 0.893011,-1.5 0.491156,0 1.152033,0.675 1.468615,1.5 0.350624,0.91371 0.0016,1.5 -0.893011,1.5 C 59.660877,372 59,371.325 59,370.5 Z m 24.969591,3.25 c -0.02716,-2.0094 -0.139403,-2.06287 -1.04969,-0.5 -0.560605,0.9625 -1.938568,1.75 -3.062141,1.75 -1.851099,0 -2.010705,-0.51641 -1.70031,-5.50136 0.329582,-5.2931 0.247906,-5.50132 -2.15745,-5.5 -2.388737,0.001 -2.5,0.26839 -2.5,6.00136 v 6 h 5.25 c 4.786788,0 5.247317,-0.19852 5.219591,-2.25 z m 10.382817,0.48961 c -0.327689,-1.25309 0.419733,-2.09259 2.59362,-2.91314 3.213822,-1.21308 4.039362,-3.94108 1.853972,-6.12647 -0.66,-0.66 -3.225,-1.2 -5.7,-1.2 -3.5,0 -4.233333,0.26667 -3.3,1.2 1.597193,1.59719 1.558271,9.48877 -0.05,10.13772 -0.6875,0.27741 0.170371,0.53991 1.90638,0.58333 2.539828,0.0635 3.066458,-0.26492 2.696028,-1.68144 z M 94,367.5 c 0,-1.68889 0.458333,-2.51389 1.25,-2.25 0.6875,0.22917 1.25,1.24167 1.25,2.25 0,1.00833 -0.5625,2.02083 -1.25,2.25 C 94.458333,370.01389 94,369.18889 94,367.5 Z m 16.24475,6 c -0.26285,-1.375 -0.0242,-2.5 0.53026,-2.5 0.5545,0 1.29053,1.125 1.63563,2.5 0.40974,1.63252 1.32704,2.5 2.6436,2.5 1.67757,0 1.84374,-0.3221 0.98957,-1.91814 -0.5646,-1.05497 -0.74008,-3.35052 -0.38994,-5.10122 0.79271,-3.96356 -0.58084,-4.97226 -6.65387,-4.88638 -2.475,0.035 -3.9375,0.29061 -3.25,0.56802 0.75802,0.30587 1.25,2.40673 1.25,5.33772 0,2.93099 -0.49198,5.03185 -1.25,5.33772 -0.6875,0.27741 0.1501,0.53991 1.86133,0.58333 2.79401,0.0709 3.06259,-0.17602 2.63342,-2.42105 z M 110,367.41667 c 0,-3.13272 2.34847,-2.78984 2.81955,0.41166 0.21221,1.44221 -0.20766,2.17167 -1.25,2.17167 C 110.54853,370 110,369.09717 110,367.41667 Z M 126.36163,374.5 c -0.42452,-1.10626 0.13679,-1.5 2.13837,-1.5 2.00158,0 2.56289,0.39374 2.13837,1.5 -0.43514,1.13396 0.17869,1.5 2.51546,1.5 2.32987,0 2.84926,-0.30782 2.10915,-1.25 -0.54006,-0.6875 -1.78129,-3.3875 -2.75831,-6 -0.97701,-2.6125 -2.31657,-4.75 -2.9768,-4.75 -0.66024,0 -2.36541,2.7 -3.78929,6 -2.43487,5.6431 -2.47622,6 -0.69511,6 1.2725,0 1.70493,-0.49209 1.31816,-1.5 z m 1.37073,-4.58453 c 0.41445,-1.58486 0.74789,-1.76464 1.39106,-0.75 1.23186,1.94331 1.06528,2.83453 -0.5298,2.83453 -0.93306,0 -1.22292,-0.70155 -0.86126,-2.08453 z M 152,374.5 c 1.49706,-1.80385 0.67157,-1.93635 -1.93237,-0.31016 C 147.50128,375.79255 145,373.72453 145,370 c 0,-3.72453 2.50128,-5.79255 5.06763,-4.18984 2.43729,1.52211 2.93237,1.4971 2.93237,-0.14813 0,-1.63753 -6.39031,-2.05869 -9.11459,-0.6007 -2.18792,1.17094 -2.65248,7.7716 -0.68541,9.73867 1.68675,1.68675 7.31025,1.49504 8.8,-0.3 z m 14.15745,-3.99864 c -0.34897,-5.60444 0.78568,-7.14527 2.76245,-3.75136 0.91029,1.56287 1.02253,1.5094 1.04969,-0.5 0.0282,-2.08671 -0.40502,-2.25 -5.96959,-2.25 -5.56498,0 -5.99769,0.16313 -5.9682,2.25 0.0303,2.14399 0.0978,2.16283 1.43347,0.39986 0.77091,-1.01757 1.8816,-1.55352 2.4682,-1.19098 1.50767,0.93179 1.35302,9.25885 -0.18347,9.87884 -0.6875,0.27741 0.1,0.54053 1.75,0.5847 l 3,0.0803 z M 181.5,370 c 0,-5.73333 -0.11111,-6 -2.5,-6 -2.38889,0 -2.5,0.26667 -2.5,6 0,5.73333 0.11111,6 2.5,6 2.38889,0 2.5,-0.26667 2.5,-6 z m 16.5,4.5 c 1.49706,-1.80385 0.67157,-1.93635 -1.93237,-0.31016 C 193.50128,375.79255 191,373.72453 191,370 c 0,-3.72453 2.50128,-5.79255 5.06763,-4.18984 2.43729,1.52211 2.93237,1.4971 2.93237,-0.14813 0,-1.63753 -6.39031,-2.05869 -9.11459,-0.6007 -2.18792,1.17094 -2.65248,7.7716 -0.68541,9.73867 1.68675,1.68675 7.31025,1.49504 8.8,-0.3 z m 17,-0.2 c 0,-1.32222 -0.26667,-1.43333 -1.2,-0.5 -1.98737,1.98737 -4.8,1.45026 -4.8,-0.91663 0,-1.6243 0.4652,-1.99498 2,-1.59362 1.45682,0.38097 2,0.0307 2,-1.28975 0,-1.32043 -0.54318,-1.67072 -2,-1.28975 -1.5348,0.40136 -2,0.0307 -2,-1.59362 0,-2.16606 2.38179,-2.92594 3.5,-1.11663 0.93407,1.51136 2.5,1.19817 2.5,-0.5 0,-1.15789 -1.3,-1.5 -5.7,-1.5 -4.43333,0 -5.43333,0.26667 -4.5,1.2 0.66,0.66 1.2,2.82 1.2,4.8 0,1.98 -0.54,4.14 -1.2,4.8 -0.93333,0.93333 0.0667,1.2 4.5,1.2 4.69804,0 5.7,-0.29883 5.7,-1.7 z m 20.10428,0.78561 c -0.91475,-0.57921 -1.12286,-1.52159 -0.60393,-2.73469 0.70455,-1.64697 0.90716,-1.5479 1.83876,0.89908 0.76821,2.01778 1.72779,2.74592 3.60393,2.73469 1.43838,-0.009 2.06909,-0.33672 1.44174,-0.75 -1.66607,-1.09758 -2.46289,-4.53745 -1.43173,-6.18081 C 241.68023,366.30128 239.29501,364 234.71482,364 H 230.5 v 6 6 l 3,-0.0153 c 2.12669,-0.0109 2.5937,-0.27258 1.60428,-0.89908 z M 234.18045,367.75 c 0.17575,-1.2375 0.76955,-2.25 1.31955,-2.25 0.55,0 1.1438,1.0125 1.31955,2.25 0.21988,1.54817 -0.19173,2.25 -1.31955,2.25 -1.12782,0 -1.53943,-0.70183 -1.31955,-2.25 z M 258,374.3 c 0,-1.32222 -0.26667,-1.43333 -1.2,-0.5 -1.98737,1.98737 -4.8,1.45026 -4.8,-0.91663 0,-1.6243 0.4652,-1.99498 2,-1.59362 1.45682,0.38097 2,0.0307 2,-1.28975 0,-1.32043 -0.54318,-1.67072 -2,-1.28975 -1.5348,0.40136 -2,0.0307 -2,-1.59362 0,-2.16606 2.38179,-2.92594 3.5,-1.11663 0.93407,1.51136 2.5,1.19817 2.5,-0.5 0,-1.15789 -1.3,-1.5 -5.7,-1.5 -4.43333,0 -5.43333,0.26667 -4.5,1.2 0.66,0.66 1.2,2.82 1.2,4.8 0,1.98 -0.54,4.14 -1.2,4.8 -0.93333,0.93333 0.0667,1.2 4.5,1.2 4.69804,0 5.7,-0.29883 5.7,-1.7 z m 16,0 c 0,-1.32222 -0.26667,-1.43333 -1.2,-0.5 -1.98737,1.98737 -4.8,1.45026 -4.8,-0.91663 0,-1.6243 0.4652,-1.99498 2,-1.59362 1.45682,0.38097 2,0.0307 2,-1.28975 0,-1.32043 -0.54318,-1.67072 -2,-1.28975 -1.5348,0.40136 -2,0.0307 -2,-1.59362 0,-2.16606 2.38179,-2.92594 3.5,-1.11663 0.93407,1.51136 2.5,1.19817 2.5,-0.5 0,-1.15789 -1.3,-1.5 -5.7,-1.5 -4.43333,0 -5.43333,0.26667 -4.5,1.2 1.55247,1.55247 1.55247,8.04753 0,9.6 -0.93333,0.93333 0.0667,1.2 4.5,1.2 4.69804,0 5.7,-0.29883 5.7,-1.7 z m 9.1808,0.8329 c -0.82661,-0.52413 -1.20001,-2.29208 -1,-4.73469 L 282.5,366.5 l 3.29804,4.75 c 1.81392,2.6125 3.68645,4.75 4.16118,4.75 0.47473,0 1.01561,-2.70082 1.20196,-6.00182 0.30486,-5.40018 0.14335,-6.00164 -1.61118,-6 -1.51667,0.001 -1.68333,0.26849 -0.75,1.20182 0.66,0.66 1.1831,2.3475 1.16245,3.75 -0.0367,2.49211 -0.11048,2.46486 -3.25,-1.20004 -2.19621,-2.56374 -4.00331,-3.72506 -5.71245,-3.67106 -1.375,0.0435 -1.9375,0.30597 -1.25,0.58338 0.75802,0.30587 1.25,2.40673 1.25,5.33772 0,2.93099 -0.49198,5.03185 -1.25,5.33772 -0.6875,0.27741 0.1,0.53302 1.75,0.56802 1.97678,0.0419 2.55005,-0.22167 1.6808,-0.77284 z M 309,374.58179 c 0,-0.78002 0.27314,-2.13002 0.60699,-3 0.45246,-1.1791 -0.0214,-1.58179 -1.86133,-1.58179 -2.09365,0 -2.39577,0.37948 -1.99041,2.5 0.35276,1.84534 0.0481,2.5 -1.16342,2.5 -3.2546,0 -4.16063,-7.1833 -1.16477,-9.23469 1.57396,-1.07775 2.2548,-0.9406 4.00151,0.80612 C 308.85714,368 309,367.97313 309,366.27582 c 0,-2.57157 -6.4961,-3.04182 -9.12718,-0.66072 -2.31627,2.09619 -2.41882,6.1241 -0.21783,8.55616 2.0538,2.26943 9.34501,2.58973 9.34501,0.41053 z M 321.5,370 c 0,-5.73333 -0.11111,-6 -2.5,-6 -2.38889,0 -2.5,0.26667 -2.5,6 0,5.73333 0.11111,6 2.5,6 2.38889,0 2.5,-0.26667 2.5,-6 z m 8.69656,2.55793 c -0.66343,-5.68276 0.18493,-5.94709 3.64109,-1.13447 1.80764,2.5171 3.66869,4.57654 4.13566,4.57654 0.46698,0 1.00152,-2.70082 1.18787,-6.00182 0.27658,-4.89938 0.0543,-6.00149 -1.21038,-6 -1.19182,0.001 -1.46028,0.86688 -1.16376,3.75182 l 0.38545,3.75 -2.74596,-3.75 c -1.92477,-2.62855 -3.50563,-3.75 -5.28624,-3.75 -1.97578,0 -2.27362,0.26667 -1.34029,1.2 1.59719,1.59719 1.55827,9.48877 -0.05,10.13772 -0.6875,0.27741 -0.32786,0.53991 0.7992,0.58333 1.75744,0.0677 1.99199,-0.41112 1.64736,-3.36312 z M 356,374.3 c 0,-1.32222 -0.26667,-1.43333 -1.2,-0.5 -1.98737,1.98737 -4.8,1.45026 -4.8,-0.91663 0,-1.6243 0.4652,-1.99498 2,-1.59362 1.45682,0.38097 2,0.0307 2,-1.28975 0,-1.32043 -0.54318,-1.67072 -2,-1.28975 -1.5348,0.40136 -2,0.0307 -2,-1.59362 0,-2.64138 3.44544,-2.89813 4.9199,-0.36663 0.91029,1.56287 1.02253,1.5094 1.04969,-0.5 0.0282,-2.08497 -0.39133,-2.24421 -5.71959,-2.17105 -3.1625,0.0434 -5.1875,0.30592 -4.5,0.58333 0.75802,0.30587 1.25,2.40673 1.25,5.33772 0,2.93099 -0.49198,5.03185 -1.25,5.33772 -0.6875,0.27741 1.3375,0.53991 4.5,0.58333 4.77606,0.0656 5.75,-0.209 5.75,-1.62105 z m 15.92105,-0.05 c -0.0472,-1.04544 -0.28201,-1.24674 -0.58333,-0.5 -0.27741,0.6875 -1.59189,1.25 -2.92105,1.25 C 366.62228,375 366,374.45498 366,372.88337 c 0,-1.6243 0.4652,-1.99498 2,-1.59362 1.45682,0.38097 2,0.0307 2,-1.28975 0,-1.32043 -0.54318,-1.67072 -2,-1.28975 -1.40252,0.36677 -2,0.0307 -2,-1.125 0,-2.5133 3.06894,-3.21145 4.64461,-1.0566 C 371.93672,368.29571 372,368.27996 372,366.19113 372,364.24382 371.47145,364 367.25,364 h -4.75 v 6 6 h 4.75 c 3.88722,0 4.73566,-0.31787 4.67105,-1.75 z m 11.3237,-0.75 c -0.26285,-1.375 -0.18931,-2.5 0.16342,-2.5 0.35273,0 1.06906,1.125 1.59183,2.5 0.59369,1.56151 1.73187,2.5 3.03195,2.5 1.91986,0 1.96638,-0.1643 0.59917,-2.11627 -1.13907,-1.62625 -1.23393,-2.66135 -0.40968,-4.47038 C 389.78304,365.986 387.73081,364 382.62756,364 H 378.5 v 6 c 0,5.80155 0.0864,6 2.61133,6 2.24619,0 2.5445,-0.34957 2.13342,-2.5 z M 383,367.44098 c 0,-1.45136 0.43284,-2.2915 1,-1.94098 0.55,0.33992 1,1.49148 1,2.55902 0,1.06754 -0.45,1.94098 -1,1.94098 -0.55,0 -1,-1.15156 -1,-2.55902 z M 406,374.3 c 0,-1.32222 -0.26667,-1.43333 -1.2,-0.5 -1.98737,1.98737 -4.8,1.45026 -4.8,-0.91663 0,-1.6243 0.4652,-1.99498 2,-1.59362 1.45682,0.38097 2,0.0307 2,-1.28975 0,-1.32043 -0.54318,-1.67072 -2,-1.28975 -1.5348,0.40136 -2,0.0307 -2,-1.59362 0,-2.16606 2.38179,-2.92594 3.5,-1.11663 0.93407,1.51136 2.5,1.19817 2.5,-0.5 0,-1.15789 -1.3,-1.5 -5.7,-1.5 -4.43333,0 -5.43333,0.26667 -4.5,1.2 1.55247,1.55247 1.55247,8.04753 0,9.6 -0.93333,0.93333 0.0667,1.2 4.5,1.2 4.69804,0 5.7,-0.29883 5.7,-1.7 z m 15.47554,0.34155 c 1.1573,-0.84624 1.85779,-2.59637 1.85779,-4.64155 0,-4.25904 -2.46324,-6.02169 -8.27446,-5.92105 -2.50738,0.0434 -3.99637,0.30592 -3.30887,0.58333 0.75802,0.30587 1.25,2.40673 1.25,5.33772 0,2.93099 -0.49198,5.03185 -1.25,5.33772 -0.6875,0.27741 0.80149,0.53991 3.30887,0.58333 2.50738,0.0434 5.39488,-0.53235 6.41667,-1.2795 z M 416,370.07332 C 416,367.283 416.3949,365 416.87756,365 c 3.36694,0 4.18363,9.18788 0.87244,9.81513 -1.48027,0.28042 -1.75,-0.45044 -1.75,-4.74181 z m 18.18989,-4.23285 c -0.38363,-2.61389 -0.18103,-3.05105 1.1732,-2.53138 C 436.26339,363.65457 437,363.50135 437,362.96862 437,362.43588 435.2,362 433,362 c -2.2,0 -4,0.43588 -4,0.96862 0,0.53273 0.73661,0.68595 1.63691,0.34047 1.35423,-0.51967 1.55683,-0.0825 1.1732,2.53138 C 431.44917,368.29967 431.71292,369 433,369 c 1.28708,0 1.55083,-0.70033 1.18989,-3.15953 z m 9.09152,0.90953 c -0.5228,-2.21375 -0.50649,-2.2178 1.01186,-0.25157 2.06729,2.6771 2.99266,1.51678 1.44625,-1.81348 C 443.96414,360.8616 442,361.28969 442,365.5 c 0,1.925 0.40787,3.5 0.90638,3.5 0.49851,0 0.66727,-1.0125 0.37503,-2.25 z M 451,365.5 c 0,-2.32497 -0.46767,-3.5 -1.39301,-3.5 -1.7679,0 -2.62945,2.1981 -1.92196,4.90355 C 448.60857,370.43517 451,369.42265 451,365.5 Z M 153.5,350.00961 c 18.3095,-5.85692 32.46166,-16.15237 43.9632,-31.98244 l 4.70291,-6.47283 -0.34191,-21.02717 c -0.31516,-19.3822 -0.52098,-21.41832 -2.6309,-26.02717 -4.64952,-10.15628 -13.97343,-16.66544 -28.92724,-20.19452 -5.26571,-1.2427 -13.41844,-1.64767 -36.76606,-1.82629 -31.11676,-0.23806 -36.08513,-0.79181 -40.869453,-4.55516 C 90.477013,236.23006 90,235.02807 90,231.2955 c 0,-8.87407 9.089708,-13.86216 25,-13.71904 9.07983,0.0817 16.12383,2.06857 40.38737,11.39206 15.4073,5.92039 24.73084,8.15062 34.25616,8.19421 9.69697,0.0444 16.42846,-2.69983 20.19059,-8.23103 l 2.33412,-3.4317 -0.44882,50.5 c -0.35554,40.00401 -0.75259,51.64313 -1.91036,56 -2.80225,10.54533 -5.61071,13.74733 -13.55906,15.45902 -1.7875,0.38494 -3.25,1.11414 -3.25,1.62044 C 193,349.632 222.99156,350 268.02361,350 h 75.02362 l -0.27362,-17.00193 c -0.27125,-16.85529 -1.39044,-21.64408 -3.07163,-13.14288 -1.15765,5.85382 -7.96233,12.97855 -16.25922,17.02396 -3.705,1.80649 -7.9078,3.3602 -9.33956,3.45269 -2.49725,0.16132 -2.59312,-0.0272 -2.35565,-4.63253 0.31634,-6.13461 5.41254,-18.50241 14.71005,-35.69931 8.68631,-16.06643 14.61845,-26.2728 15.0099,-25.82488 0.15616,0.17868 5.68339,9.77488 12.28275,21.32488 13.05341,22.84573 18.29812,32.91718 20.20671,38.80311 2.18702,6.74461 -0.55201,11.69689 -6.46937,11.69689 -1.85326,0 -3.64767,0.45 -3.98759,1 -0.4052,0.65562 7.32295,1 22.44098,1 C 400.64699,348 409,347.63776 409,347 c 0,-0.55 -0.73438,-1 -1.63197,-1 -5.9201,0 -13.86681,-9.77601 -30.07648,-37 -17.87294,-30.01744 -22.41299,-38.24116 -21.87937,-39.63173 0.82324,-2.14533 27.80018,-47.23376 33.12749,-55.36827 5.89268,-8.9978 14.56285,-18 17.3361,-18 1.10341,0 2.28431,-0.45 2.62423,-1 0.40472,-0.65485 -6.04646,-0.96304 -18.69098,-0.89291 -15.27568,0.0847 -18.36904,0.31342 -14.80902,1.09483 5.30906,1.16532 7.67376,3.0244 8.46085,6.65177 1.39342,6.42163 -6.15726,24.54496 -21.64194,51.94554 l -8.08082,14.29923 -1.73373,-2.85089 C 334.79915,236.95587 320,208.33473 320,203.35203 320,198.93453 322.97003,196 327.44098,196 c 1.89254,0 3.7191,-0.45 4.05902,-1 0.4052,-0.65562 -7.32295,-1 -22.44098,-1 -20.94514,0 -27.84853,0.7921 -20.21287,2.31923 6.40582,1.28116 15.7477,14.02425 37.29257,50.87012 5.36731,9.17915 10.67846,18.49213 11.80254,20.69552 l 2.04379,4.00616 -13.83988,23.3639 c -21.18211,35.75874 -27.83909,45.36091 -33.95062,48.97107 -3.74715,2.2135 -21.89817,3.75058 -44.44455,3.76368 L 230,348 l 0.0173,-85.25 c 0.0168,-82.44731 0.50865,-99.09811 3.19209,-108.05466 1.73772,-5.79998 6.55111,-10.47351 11.6221,-11.28439 C 254.91406,141.79869 247.01928,141 221,141 c -26.01928,0 -33.91406,0.79869 -23.83152,2.41095 2.93004,0.46853 5.13321,1.68948 7.41571,4.10964 5.24613,5.56252 6.53869,13.42808 7.16327,43.59051 0.51651,24.94332 0.47626,25.66518 -1.54363,27.68507 -6.89619,6.89619 -22.85339,5.305 -48.83176,-4.86933 -20.332,-7.96295 -28.2778,-9.99364 -39.72277,-10.15186 -10.56294,-0.14603 -17.41651,1.9762 -24.944299,7.7241 -8.216909,6.27407 -11.992901,18.17593 -8.134002,25.63822 0.992793,1.91985 3.293103,3.8242 6.25,5.17418 4.311317,1.96834 6.918581,2.18269 33.179001,2.72782 25.7831,0.53523 29.05811,0.79616 34.35456,2.73723 10.27346,3.76505 16.08847,9.56111 19.28634,19.22347 1.51909,4.58995 1.82349,8.892 1.83969,26 0.0194,20.48774 0.0177,20.50344 -2.80482,26.25139 -8.05225,16.39798 -24.32891,28.14656 -42.58096,30.73516 -21.68245,3.07513 -43.633847,-7.24408 -59.629272,-28.03134 C 54.449085,290.74403 47.365692,236.75785 61.611248,193.5 69.27617,170.22481 83.114173,151.62635 99.645452,142.38153 110.41652,136.35801 116.8953,134.70756 130,134.64883 c 13.66945,-0.0613 19.67553,1.2113 30.87222,6.54123 9.98659,4.7539 19.98832,14.11365 24.63907,23.05756 4.7313,9.09882 5.48871,7.90239 5.48871,-8.67007 V 141.1551 l -3.25,-1.01306 c -18.44432,-5.74931 -34.73027,-8.21985 -54.75,-8.30543 -10.06877,-0.043 -16.63921,0.43615 -21.5,1.56804 -37.324063,8.69129 -64.744397,38.94819 -74.093007,81.75772 C 34.893857,226.67063 34.443597,248.36696 36.434982,262 43.457263,310.0746 73.513809,344.21172 116,352.36702 c 1.375,0.26393 8.8,0.3453 16.5,0.18083 11.15726,-0.23833 15.42137,-0.75372 21,-2.53824 z"
       id="path1" />
  </g>
</svg>
